<?xml version="1.0" standalone="no"?>
<!DOCTYPE svg PUBLIC "-//W3C//DTD SVG 20010904//EN"
 "http://www.w3.org/TR/2001/REC-SVG-20010904/DTD/svg10.dtd">
<svg version="1.0" xmlns="http://www.w3.org/2000/svg"
 width="1568.000000pt" height="1568.000000pt" viewBox="0 0 1568.000000 1568.000000"
 preserveAspectRatio="xMidYMid meet">
<metadata>
Created by potrace 1.11, written by Peter Selinger 2001-2013
</metadata>
<g transform="translate(0.000000,1568.000000) scale(0.100000,-0.100000)"
fill="#000000" stroke="none">
<path d="M8345 15665 c-153 -21 -175 -26 -319 -62 -242 -61 -551 -186 -1031
-418 -88 -43 -230 -111 -315 -152 -85 -41 -204 -94 -265 -118 -104 -40 -275
-110 -340 -140 -120 -54 -205 -94 -302 -142 l-113 -55 -26 18 c-15 11 -33 23
-39 28 -29 21 -125 -81 -125 -131 0 -16 -12 -29 -42 -44 -48 -24 -365 -213
-443 -263 -27 -18 -147 -96 -265 -173 -221 -145 -269 -173 -293 -173 -13 0
-154 -93 -267 -176 -30 -22 -93 -64 -140 -94 -117 -74 -249 -174 -350 -266
-47 -42 -100 -83 -119 -91 -18 -8 -55 -36 -83 -64 -27 -27 -53 -49 -58 -49 -6
0 -10 -3 -10 -7 0 -5 -28 -37 -61 -73 -34 -36 -88 -94 -121 -130 -33 -36 -81
-87 -105 -113 -25 -27 -48 -46 -51 -43 -8 9 -102 -46 -96 -55 3 -5 -1 -9 -8
-9 -8 0 -20 -8 -28 -18 -22 -25 -111 -149 -151 -207 -18 -27 -37 -54 -41 -60
-152 -194 -314 -421 -404 -565 -12 -19 -46 -73 -76 -120 -30 -47 -72 -112 -93
-145 -54 -85 -138 -257 -166 -340 -15 -44 -68 -141 -145 -265 -113 -182 -142
-241 -193 -395 -11 -33 -26 -76 -34 -95 -8 -19 -18 -51 -21 -70 -3 -19 -17
-80 -32 -135 -53 -201 -64 -284 -60 -485 3 -142 9 -206 24 -275 61 -262 146
-440 349 -735 107 -156 428 -456 679 -636 218 -156 580 -358 859 -479 151 -66
554 -228 770 -310 83 -31 197 -79 255 -107 58 -29 107 -52 110 -53 3 -1 41
-19 85 -39 204 -96 474 -189 655 -225 57 -12 69 -14 135 -25 22 -4 58 -14 81
-22 36 -14 40 -19 37 -42 -3 -26 -3 -27 8 -4 7 12 15 22 20 22 4 0 72 -24 151
-54 78 -29 173 -63 211 -75 65 -22 67 -23 67 -57 0 -30 -3 -34 -27 -34 -57 0
-200 -42 -291 -85 -240 -114 -412 -303 -511 -564 -41 -105 -101 -338 -106
-411 -3 -30 -7 -89 -10 -130 -3 -41 -8 -86 -10 -100 -2 -14 -7 -52 -10 -84 -3
-33 -7 -73 -10 -90 -2 -17 -7 -53 -10 -81 -27 -213 -36 -270 -50 -340 -8 -38
-23 -144 -35 -235 -30 -242 -36 -280 -100 -605 -32 -161 -139 -740 -165 -895
-39 -224 -115 -685 -120 -720 -3 -25 -10 -72 -15 -105 -23 -155 -31 -399 -18
-562 39 -487 271 -867 703 -1152 105 -69 336 -182 455 -221 52 -17 149 -45
215 -60 66 -16 162 -45 214 -65 100 -39 236 -72 329 -81 31 -3 74 -7 96 -9
228 -26 1476 -26 1559 0 7 2 41 6 77 10 79 7 170 21 270 40 41 8 119 17 174
20 314 17 576 133 790 350 201 202 341 480 392 775 14 78 19 158 19 310 0 234
-1 251 -49 543 -77 465 -139 698 -371 1392 -91 273 -123 361 -278 765 -81 213
-148 413 -168 502 -6 32 -16 55 -20 52 -4 -2 -6 7 -3 22 3 18 1 23 -7 18 -9
-5 -10 -1 -7 14 4 14 2 20 -4 16 -6 -4 -8 1 -3 15 3 11 2 21 -3 21 -17 0 -102
404 -88 418 3 2 13 -4 23 -13 32 -32 103 -57 162 -57 74 0 139 31 191 89 22
25 45 43 52 40 7 -2 15 -4 18 -3 3 0 18 -7 33 -17 15 -9 27 -15 27 -12 0 3 9
1 19 -5 14 -7 22 -7 27 2 4 7 3 8 -5 4 -7 -4 -10 -2 -9 5 2 6 -3 14 -11 17
-10 3 -11 0 -5 -9 6 -11 5 -12 -8 -2 -8 7 -19 9 -23 5 -5 -4 -5 -1 0 7 5 9 4
12 -3 7 -6 -3 -13 -2 -17 4 -4 6 -11 8 -16 5 -5 -4 -17 -1 -26 4 -17 10 -17
10 0 11 12 0 16 4 11 13 -4 6 1 5 12 -4 10 -9 25 -14 32 -12 6 3 12 1 12 -4 0
-10 8 -12 55 -15 14 -1 25 -5 25 -10 0 -4 6 -5 14 -2 8 3 17 0 21 -5 3 -6 11
-9 16 -6 5 4 9 1 9 -5 0 -6 4 -8 10 -5 6 4 7 -1 3 -11 -5 -13 -3 -15 8 -8 19
12 40 14 34 3 -4 -5 8 -7 24 -5 19 2 28 -1 24 -7 -4 -7 1 -8 13 -4 16 6 17 5
4 -6 -22 -18 -25 -41 -5 -33 9 3 19 6 21 6 3 0 3 4 -1 9 -3 5 -1 12 4 15 5 4
12 2 16 -3 3 -6 13 -7 22 -4 10 4 14 2 10 -4 -4 -6 4 -10 19 -10 31 0 37 -6
37 -37 0 -14 2 -25 6 -24 20 2 31 -3 25 -13 -4 -8 -9 -7 -15 2 -7 12 -9 11 -9
0 0 -11 -4 -9 -14 5 -11 14 -11 21 -3 26 9 6 8 8 -1 8 -7 0 -10 6 -7 13 4 6 0
3 -9 -7 -8 -10 -13 -23 -9 -28 3 -6 -4 -5 -14 1 -11 6 -24 7 -29 3 -5 -4 -2 1
5 11 15 20 2 23 -18 5 -11 -10 -13 -10 -7 0 7 11 -5 17 -28 13 -4 -1 -14 4
-22 10 -11 9 -11 15 -3 25 8 10 8 14 1 14 -18 0 -23 -17 -13 -42 6 -12 10 -20
10 -15 1 4 15 0 32 -9 34 -17 65 -26 92 -26 9 1 15 -3 12 -9 -5 -8 10 -13 18
-6 2 1 15 -6 30 -16 15 -9 27 -15 27 -12 0 3 13 -1 29 -9 15 -8 41 -17 56 -20
14 -3 33 -10 41 -17 8 -7 14 -7 14 -1 0 5 -7 13 -16 16 -13 5 -14 9 -4 21 17
21 1 19 -23 -2 -11 -10 -17 -13 -14 -6 5 7 1 10 -10 8 -10 -1 -30 6 -45 17
-16 11 -28 15 -28 8 0 -6 -5 -8 -11 -4 -6 3 -7 9 -3 13 13 9 17 44 5 37 -11
-7 -41 20 -41 37 0 8 3 8 8 2 4 -5 14 -11 22 -13 8 -2 17 -8 18 -13 2 -6 11
-4 20 3 13 11 14 11 7 -1 -6 -11 -4 -13 9 -8 9 4 15 3 12 -1 -3 -5 9 -9 27
-10 55 -2 64 -5 63 -20 0 -8 5 -17 12 -19 8 -3 10 2 6 14 -4 14 -4 15 4 4 5
-7 15 -11 20 -7 6 4 16 -3 22 -15 8 -15 9 -19 1 -15 -14 9 -14 -4 -1 -24 5 -8
10 -10 10 -5 0 6 7 1 15 -9 13 -17 15 -17 15 -4 0 9 -5 20 -11 23 -6 4 -8 13
-5 20 3 8 0 16 -7 19 -7 2 -4 5 6 5 14 1 17 -4 12 -18 -3 -11 -1 -22 4 -26 6
-3 8 0 5 8 -3 8 -1 18 5 22 10 6 15 -6 12 -31 0 -6 13 -10 29 -10 17 0 29 4
27 10 -2 6 -11 10 -21 8 -10 -2 -16 4 -16 15 0 15 2 16 10 3 5 -8 10 -11 10
-6 0 5 7 3 15 -4 8 -7 15 -9 15 -5 0 4 6 2 13 -4 8 -6 17 -8 20 -5 3 3 4 -8 2
-25 -4 -28 -2 -29 15 -19 13 9 16 16 9 24 -6 8 -6 14 -1 18 13 8 30 -15 27
-37 -2 -10 2 -16 8 -14 7 2 11 13 10 23 -1 10 0 13 3 7 3 -7 10 -13 15 -13 6
0 7 5 3 12 -4 7 -3 8 5 4 6 -4 9 -11 6 -16 -3 -5 10 -7 30 -6 19 2 32 0 29 -5
-2 -4 4 -7 13 -7 10 0 32 -3 48 -7 17 -3 37 -8 45 -9 9 -1 21 -5 28 -10 12 -7
48 -17 70 -18 6 -1 12 -6 12 -12 0 -6 5 -4 10 4 5 8 10 10 10 4 0 -5 -5 -15
-11 -21 -9 -9 -7 -12 10 -10 12 1 20 6 17 12 -2 7 2 12 9 12 7 0 11 -7 8 -15
-5 -12 -2 -12 17 -2 12 7 20 8 16 2 -3 -5 4 -10 17 -10 26 0 48 -5 63 -14 6
-4 21 -6 33 -3 11 2 21 0 21 -4 0 -4 6 -8 13 -9 6 0 21 -3 32 -6 11 -2 24 -5
29 -5 4 -1 6 -7 3 -14 -3 -8 1 -14 9 -14 8 0 13 6 10 13 -3 7 2 11 12 9 9 -1
16 -9 14 -17 -1 -8 5 -15 13 -15 9 0 14 6 11 14 -3 8 -1 11 5 8 5 -4 7 -16 4
-28 -5 -20 -5 -20 8 2 13 22 14 22 22 5 5 -11 7 -25 6 -31 -1 -8 4 -10 13 -7
9 3 15 9 14 12 -2 19 3 32 13 32 8 0 8 -5 -1 -15 -12 -15 0 -22 14 -8 10 11
37 12 30 2 -3 -6 5 -8 20 -5 14 3 26 1 26 -4 0 -5 12 -7 28 -5 15 1 35 -4 45
-13 9 -8 17 -11 17 -6 0 5 5 2 10 -6 6 -10 10 -11 10 -2 0 6 5 12 11 12 5 0 8
-4 4 -9 -3 -5 9 -10 27 -11 18 0 41 -1 51 -1 9 0 17 -4 17 -9 0 -4 11 -7 24
-6 14 2 30 -1 38 -5 9 -6 10 -9 1 -9 -7 0 -10 -7 -7 -15 4 -8 10 -13 14 -10 5
3 12 0 16 -6 4 -7 3 -9 -3 -6 -6 4 -14 0 -17 -9 -9 -23 -4 -25 19 -8 17 13 18
17 7 35 -8 12 -11 24 -8 27 3 3 6 1 6 -4 0 -8 17 -11 73 -14 9 -1 17 -5 17 -9
0 -4 13 -6 29 -5 22 1 28 -2 24 -12 -6 -16 17 -15 30 1 4 7 10 7 15 0 4 -6 17
-10 30 -9 13 1 26 -5 29 -12 3 -8 10 -11 16 -7 5 3 7 2 4 -4 -7 -12 20 -53 35
-53 6 0 3 10 -8 23 -17 20 -16 20 8 -2 21 -19 25 -27 17 -38 -8 -9 -8 -13 -1
-13 6 0 14 5 17 11 5 6 13 3 22 -10 8 -12 19 -21 25 -21 6 0 4 8 -6 19 -15 16
-15 19 -1 31 12 10 15 10 16 -1 0 -8 5 -4 11 9 8 16 17 21 31 16 15 -5 17 -3
11 7 -6 11 -5 12 8 2 8 -7 19 -9 23 -5 5 4 5 1 0 -7 -6 -10 -2 -12 16 -6 16 4
20 3 11 -3 -11 -7 -10 -10 3 -16 9 -3 13 -10 10 -16 -3 -5 -1 -10 4 -10 6 0
10 -5 9 -11 -2 -6 4 -14 12 -16 9 -3 11 -1 5 4 -14 11 -17 33 -5 33 5 0 10 -7
10 -15 0 -8 5 -15 11 -15 5 0 8 4 5 9 -12 18 27 4 41 -15 8 -10 18 -19 23 -19
6 0 10 -3 10 -7 0 -31 -1 -32 -10 -18 -9 13 -10 13 -10 0 0 -13 -2 -13 -9 0
-6 8 -7 18 -5 22 3 4 1 8 -3 8 -13 0 -35 -40 -23 -41 5 -1 19 -3 30 -4 11 -1
21 -3 23 -5 8 -6 47 -5 47 2 0 4 -8 8 -17 8 -10 0 -14 4 -8 8 6 4 10 13 10 21
0 8 6 15 13 17 7 1 8 0 2 -3 -16 -8 -11 -26 6 -19 8 3 12 2 9 -3 -3 -5 -1 -12
5 -16 5 -3 10 0 10 7 0 9 3 9 10 -2 5 -8 10 -19 10 -25 0 -5 -4 -4 -9 3 -11
19 -19 17 -41 -10 -16 -20 -22 -21 -39 -11 -11 7 -30 13 -42 13 -23 0 -53 25
-45 39 3 5 -5 16 -19 25 -29 19 -57 22 -30 3 14 -11 15 -16 5 -22 -9 -5 -11
-4 -6 3 4 7 2 12 -3 12 -6 0 -11 -5 -11 -11 0 -8 -4 -8 -12 -1 -7 5 -30 8 -51
7 -28 -2 -36 0 -28 8 16 16 13 31 -4 17 -8 -6 -19 -9 -25 -5 -5 3 -10 0 -10
-7 0 -9 -3 -9 -10 2 -8 12 -11 13 -19 1 -6 -9 -11 -10 -15 -2 -4 6 -11 9 -16
6 -5 -3 -11 -1 -15 5 -4 6 -11 7 -17 4 -7 -4 -8 -2 -4 4 4 7 3 12 -3 12 -5 0
-12 -6 -14 -12 -4 -10 -6 -10 -6 0 -1 7 -5 11 -10 7 -6 -3 -15 4 -21 15 -8 15
-15 18 -28 11 -10 -5 -24 -6 -32 -1 -7 4 -20 6 -29 3 -14 -4 -14 -3 -1 5 8 6
18 8 24 5 5 -3 6 -2 3 4 -4 6 -22 9 -42 6 -19 -2 -35 1 -35 5 0 5 -12 9 -27 8
-17 0 -27 4 -25 12 3 16 -15 16 -21 0 -4 -10 -6 -9 -6 1 -1 11 -4 11 -16 1
-12 -10 -16 -9 -21 4 -3 9 -10 16 -16 16 -5 0 -7 -3 -5 -8 3 -4 -7 -8 -21 -9
-15 0 -37 -3 -50 -6 -15 -4 -25 -1 -29 9 -3 9 -12 12 -25 8 -15 -4 -19 -2 -16
12 2 9 -2 19 -9 21 -8 3 -11 -3 -8 -17 3 -14 0 -18 -8 -13 -7 4 -30 8 -52 8
-22 0 -40 2 -40 5 -1 3 -12 16 -25 30 -28 29 -57 36 -57 14 0 -8 6 -13 13 -10
18 7 25 -6 13 -24 -6 -10 -9 -11 -9 -2 0 6 -5 12 -11 12 -5 0 -7 -5 -3 -11 4
-8 1 -8 -12 -2 -11 5 -31 8 -46 7 -15 0 -25 3 -23 7 3 4 0 11 -7 15 -17 11
-48 12 -42 2 3 -4 12 -8 21 -8 9 0 14 -2 11 -5 -9 -10 -68 7 -68 20 0 6 -12
18 -27 25 -16 8 -32 16 -37 19 -5 2 -6 -1 -2 -7 4 -7 2 -12 -4 -12 -7 0 -10 7
-6 15 6 16 -14 16 -27 0 -5 -5 -6 0 -2 12 4 15 2 21 -9 19 -19 -3 -34 -16 -18
-16 7 0 12 -7 12 -16 0 -9 6 -14 13 -11 7 3 21 -1 32 -9 10 -8 24 -14 29 -14
6 0 4 5 -4 10 -8 5 -10 10 -5 10 6 -1 19 -7 29 -15 19 -15 19 -15 -5 -15 -13
0 -42 5 -64 10 -22 5 -78 12 -125 15 -58 5 -89 11 -97 22 -7 9 -17 12 -24 7
-16 -9 -99 -11 -99 -2 0 3 -18 9 -40 13 -22 4 -42 11 -46 16 -3 5 -14 9 -25 9
-31 0 -90 34 -137 79 -33 32 -48 40 -66 35 -13 -3 -38 1 -57 9 -19 7 -68 15
-109 16 -62 1 -86 7 -135 32 -91 48 -150 49 -290 9 -128 -38 -123 -31 -117
-152 2 -29 56 -98 76 -98 7 0 31 -14 54 -32 41 -31 45 -32 149 -34 70 -1 122
-7 148 -17 244 -94 416 -133 595 -136 l115 -2 27 -33 c49 -60 256 -110 338
-83 29 10 41 9 70 -5 29 -15 42 -16 74 -7 42 11 59 10 146 -14 30 -9 79 -19
109 -22 30 -4 66 -11 80 -16 14 -6 44 -12 66 -15 22 -3 65 -10 95 -16 30 -6
92 -10 137 -9 45 0 93 -3 108 -9 19 -7 24 -7 19 2 -5 8 -2 9 12 4 10 -5 33
-13 49 -18 17 -6 38 -18 48 -26 15 -14 17 -13 17 4 0 12 3 15 8 7 8 -13 202
-44 202 -32 0 4 -12 10 -27 12 -16 2 13 5 62 6 103 2 139 14 84 29 l-34 9 27
13 c23 11 31 9 68 -11 l43 -24 -29 -5 c-28 -5 -28 -6 -9 -18 17 -11 4 -12 -77
-9 -53 2 -95 0 -92 -5 3 -4 29 -9 57 -10 l52 -1 -60 -7 c-36 -4 -48 -8 -30 -9
17 -2 41 -4 55 -6 163 -17 167 -17 173 -1 6 14 11 14 44 -3 66 -33 78 -34 112
-5 38 31 32 42 -44 85 -28 15 -58 42 -68 58 -17 29 -17 30 5 46 l23 16 -25 19
c-14 11 -42 25 -63 32 -21 6 -43 20 -48 30 -6 10 -15 16 -21 12 -7 -4 -6 -9 3
-15 10 -6 10 -9 2 -9 -6 0 -14 4 -17 9 -3 4 -21 7 -40 6 -19 -1 -32 3 -29 7 3
5 11 7 18 4 7 -2 16 2 19 10 7 17 5 17 -31 2 -15 -6 -38 -12 -50 -13 -20 -2
-21 -1 -6 22 9 13 13 26 9 30 -3 3 -6 1 -6 -6 0 -7 -5 -9 -11 -5 -8 4 -7 9 2
14 18 12 21 43 4 36 -8 -3 -17 -1 -20 4 -4 6 -11 10 -17 10 -6 0 -1 -9 12 -20
13 -11 18 -20 12 -20 -6 0 -17 6 -25 14 -11 11 -17 12 -26 3 -6 -6 -11 -7 -11
-3 0 5 -6 3 -14 -3 -12 -10 -17 -8 -26 9 -7 12 -18 19 -25 16 -8 -3 -17 -1
-20 5 -4 5 -1 8 7 7 7 -2 12 4 10 12 -2 10 4 7 17 -7 12 -12 21 -28 21 -35 0
-7 9 -2 20 12 11 14 20 19 20 11 0 -10 3 -11 13 -2 13 10 25 9 80 -5 12 -3 28
-6 35 -6 17 -2 15 -18 -2 -18 -14 0 -46 -36 -46 -52 0 -5 9 -3 19 4 11 7 19
17 18 22 -1 6 8 10 20 9 17 -2 21 2 18 17 -3 17 1 19 38 15 23 -2 43 -5 45 -6
1 -1 8 -2 15 -3 6 -1 11 -7 10 -13 -2 -7 6 -11 17 -10 22 1 26 13 8 21 -20 8
34 -1 56 -10 15 -6 17 -4 11 6 -5 8 -4 11 3 6 6 -4 9 -13 6 -21 -4 -8 -10 -12
-15 -9 -5 3 -9 1 -9 -3 0 -5 9 -14 21 -21 19 -12 20 -11 14 7 -3 10 -1 22 5
26 6 3 7 12 3 18 -5 8 -2 8 9 0 8 -7 18 -10 21 -6 4 3 7 -5 7 -18 0 -18 2 -21
9 -9 6 8 8 17 6 20 -2 3 24 6 58 6 40 0 65 -5 70 -13 5 -8 13 -11 19 -7 7 4 7
9 -1 13 -6 4 9 8 34 8 35 1 45 -2 41 -12 -3 -8 6 -20 18 -29 22 -14 23 -14 23
10 0 19 -2 22 -12 14 -10 -9 -13 -7 -10 7 2 10 4 20 4 22 1 3 6 0 13 -7 16
-16 31 -15 22 1 -4 6 4 2 18 -11 22 -20 26 -21 32 -7 3 9 2 13 -3 10 -5 -3
-13 0 -17 7 -4 7 -4 10 1 6 4 -4 16 -3 26 2 12 7 20 6 25 -2 4 -6 3 -8 -3 -5
-6 4 -13 1 -16 -7 -4 -9 0 -13 11 -11 9 2 21 4 25 4 5 1 5 6 1 12 -5 8 -1 8
14 0 29 -15 41 -13 19 3 -15 12 -15 14 -2 19 8 4 14 1 12 -5 -1 -6 4 -13 12
-16 10 -3 12 0 8 12 -4 11 -3 15 4 11 6 -4 8 -13 5 -21 -6 -16 3 -18 24 -4 10
6 11 10 3 10 -7 0 -13 5 -13 11 0 8 4 8 14 0 7 -6 21 -9 30 -5 11 4 16 1 16
-11 0 -9 5 -13 10 -10 6 4 8 11 5 16 -4 5 -2 9 4 9 5 0 13 -9 16 -21 4 -11 9
-18 12 -15 4 3 12 1 20 -5 9 -8 13 -8 13 -1 0 6 -10 18 -21 26 -21 14 -21 15
7 12 16 -1 35 -5 42 -9 7 -5 12 -3 12 4 0 7 6 4 14 -6 10 -14 11 -25 5 -37 -5
-10 -7 -18 -5 -18 3 0 13 14 22 31 8 17 11 28 6 25 -6 -4 -13 -3 -16 2 -2 4 4
8 14 9 23 2 35 -26 15 -33 -8 -4 -12 -11 -9 -16 4 -6 10 -5 15 3 4 7 11 10 16
6 4 -5 3 -11 -2 -15 -6 -4 -12 -16 -13 -26 -3 -17 -1 -18 11 -8 18 15 16 74
-4 99 -9 11 -10 14 -1 9 7 -4 12 -2 12 4 0 6 5 8 10 5 6 -4 18 -1 27 7 9 7 14
8 10 2 -4 -7 0 -15 9 -18 23 -9 31 -7 14 4 -8 5 -11 12 -7 17 9 9 28 -17 21
-29 -3 -4 -1 -8 4 -8 6 0 13 7 16 16 8 22 8 26 -4 19 -5 -3 -10 -1 -10 5 0 7
6 10 13 7 6 -2 20 3 30 11 16 14 17 14 12 0 -5 -12 -2 -16 12 -13 10 2 20 4
23 4 3 1 -2 6 -10 12 -13 9 -13 10 0 6 8 -2 23 7 33 19 11 14 27 23 40 21 12
-1 21 3 20 9 -1 6 8 10 20 9 12 -2 21 -8 19 -14 -1 -6 2 -11 8 -11 13 0 13 27
0 35 -6 4 -8 11 -4 16 3 5 9 7 14 4 5 -3 11 -1 15 5 3 6 18 8 32 6 19 -4 23
-1 19 10 -4 11 -2 12 13 5 18 -10 31 -6 31 10 0 5 -8 6 -17 3 -10 -2 -8 1 5 7
12 7 22 16 22 22 0 5 7 6 16 3 12 -4 15 -2 10 9 -3 8 -2 14 2 14 19 -3 33 2
27 10 -3 6 3 15 14 21 14 7 22 7 27 -2 4 -6 3 -8 -3 -5 -5 3 -17 -7 -27 -24
-9 -16 -21 -30 -27 -30 -5 -1 -15 -2 -21 -3 -7 0 -14 -10 -16 -21 -2 -16 -1
-17 7 -5 5 8 12 12 15 10 2 -3 -10 -22 -27 -42 -18 -20 -45 -52 -62 -71 -16
-19 -33 -33 -36 -31 -4 2 -10 -3 -13 -12 -3 -9 -11 -12 -18 -8 -8 5 -9 2 -5
-9 4 -10 2 -16 -6 -14 -7 1 -11 -3 -10 -10 2 -8 -4 -10 -14 -6 -9 4 -14 2 -11
-3 4 -5 -5 -10 -18 -10 -16 -1 -24 4 -24 14 0 18 -13 8 -16 -13 -2 -15 7 -19
36 -16 8 2 4 -6 -10 -15 -14 -10 -28 -22 -31 -27 -3 -5 -9 -1 -13 8 -9 25 -8
27 17 20 20 -6 21 -5 3 6 -16 10 -22 9 -33 -7 -14 -19 -14 -19 -11 0 2 10 -2
21 -8 23 -6 2 -10 -10 -10 -27 0 -25 3 -29 19 -24 14 4 18 2 15 -7 -6 -17 -30
-19 -40 -4 -5 6 -8 4 -8 -5 0 -8 -7 -2 -15 14 -11 20 -12 33 -5 40 17 17 11
27 -9 14 -21 -13 -22 -28 -3 -50 6 -8 9 -18 5 -21 -6 -6 11 -11 30 -8 4 0 7
-3 7 -9 0 -14 -149 -83 -263 -122 -53 -18 -93 -34 -88 -36 5 -2 59 13 120 33
151 51 328 153 417 243 7 6 18 12 24 12 6 0 8 5 5 10 -3 6 -2 10 4 10 5 0 13
-4 16 -10 3 -5 11 -10 17 -10 6 0 3 9 -7 20 -10 11 -13 20 -7 20 7 0 12 -4 12
-10 0 -6 10 -5 25 2 13 6 22 15 19 20 -3 5 -12 4 -19 -2 -10 -8 -15 -8 -21 1
-4 8 -3 9 4 5 6 -4 18 5 26 21 8 15 15 22 16 16 0 -7 4 -13 9 -13 6 0 8 9 6
19 -3 14 1 18 11 14 9 -3 12 0 9 8 -3 8 -1 20 4 28 8 12 12 12 25 2 12 -11 15
-9 13 8 -1 12 -5 21 -9 21 -4 0 6 15 23 32 16 18 29 36 29 41 0 4 5 5 11 1 8
-4 7 -9 -2 -15 -10 -6 -10 -9 -2 -9 6 0 10 -9 8 -20 -5 -27 4 -25 14 3 6 15 5
29 -5 45 -8 12 -10 22 -4 22 5 0 10 5 10 11 0 7 -9 5 -24 -5 -18 -11 -27 -13
-32 -4 -4 6 -3 8 4 4 6 -3 13 -2 17 4 3 5 1 10 -6 10 -7 0 -4 6 6 14 11 8 24
12 28 9 5 -3 6 5 2 17 -6 19 -4 21 17 15 23 -7 23 -7 3 9 -14 11 -15 15 -5 14
8 -2 15 4 15 13 0 9 6 23 13 31 6 8 8 18 4 22 -4 4 -2 7 3 6 21 -5 29 1 15 10
-13 9 -13 11 0 20 8 5 11 10 5 10 -5 0 -4 5 2 11 6 6 10 17 9 23 -2 6 -1 8 1
3 3 -4 9 -5 14 -1 5 3 5 14 -2 25 -6 12 -8 23 -5 27 3 3 6 -1 6 -9 0 -8 3 -10
8 -4 12 17 47 41 38 28 -4 -7 -3 -13 3 -13 6 0 7 -8 4 -17 -6 -15 -7 -15 -13
2 -5 13 -9 15 -14 6 -4 -6 -2 -19 5 -27 11 -13 10 -18 -4 -26 -13 -7 -15 -13
-7 -28 9 -17 8 -19 -7 -13 -15 6 -16 4 -5 -9 10 -12 9 -18 -3 -28 -8 -7 -13
-16 -10 -20 7 -11 -22 -33 -35 -25 -5 3 -10 2 -10 -4 0 -5 5 -13 11 -17 8 -5
7 -10 -4 -16 -9 -5 -14 -15 -11 -23 4 -8 1 -15 -6 -15 -6 0 -8 5 -5 10 3 6 2
10 -3 10 -6 0 -13 -7 -16 -16 -9 -22 -8 -26 5 -18 8 4 8 0 0 -15 -8 -14 -9
-27 -2 -38 5 -10 5 -26 1 -39 -5 -12 -6 -25 -2 -29 4 -4 3 -6 -3 -5 -21 5 -36
0 -30 -9 3 -5 1 -12 -4 -16 -6 -3 -8 -13 -5 -23 5 -14 3 -14 -6 2 -10 14 -10
20 0 26 8 5 8 10 2 14 -13 8 -21 -14 -16 -50 2 -21 -1 -31 -10 -31 -8 0 -12 6
-9 13 2 7 -2 11 -11 10 -20 -3 -33 -16 -17 -16 7 0 11 -7 8 -14 -4 -11 -1 -13
11 -10 13 5 13 2 -3 -11 -11 -9 -19 -20 -18 -24 1 -5 -9 -7 -22 -5 -27 2 -32
-5 -13 -24 9 -9 9 -12 0 -12 -7 0 -12 5 -12 12 0 15 -15 0 -15 -15 0 -7 -10
-11 -22 -10 -14 2 -20 -3 -19 -15 0 -9 -3 -17 -9 -17 -15 -1 -57 -26 -52 -31
5 -5 68 26 85 43 7 7 17 13 21 13 12 0 81 57 76 62 -3 3 8 15 25 28 16 12 27
27 24 31 -3 5 -1 9 5 9 5 0 23 27 39 59 16 33 33 57 38 53 4 -4 4 1 1 11 -4 9
-2 17 3 17 6 0 9 3 8 8 -2 7 4 19 72 142 52 94 151 296 154 312 1 7 4 18 8 23
10 16 76 195 72 195 -2 0 -28 -52 -58 -115 -30 -63 -57 -115 -59 -115 -3 0 -5
15 -4 34 0 19 4 33 9 30 4 -3 5 3 1 12 -4 11 -3 15 4 11 6 -4 15 5 21 21 6 15
22 57 36 95 28 73 20 94 -9 25 -10 -24 -32 -72 -48 -108 -16 -36 -30 -77 -30
-92 0 -15 -4 -25 -8 -22 -11 6 -41 -66 -35 -83 3 -7 0 -12 -6 -10 -6 1 -13 -4
-16 -12 -3 -9 0 -11 7 -6 12 7 -13 -63 -26 -74 -3 -4 -3 3 2 14 4 11 7 28 7
38 -3 39 -2 84 3 127 3 25 7 56 8 70 1 14 6 29 12 33 6 5 3 7 -7 3 -10 -3 -18
-1 -18 4 0 6 7 10 15 10 8 0 15 5 15 11 0 5 -5 7 -11 3 -7 -4 -6 3 2 17 7 13
14 36 16 50 1 15 16 93 32 175 16 82 33 183 36 224 3 41 8 86 10 100 5 35 27
441 29 543 0 20 5 37 11 37 5 0 3 5 -5 10 -10 6 -11 10 -2 10 6 0 12 5 12 11
0 5 -6 7 -12 3 -9 -5 -9 -2 1 9 11 14 11 17 0 17 -12 0 -12 2 0 9 11 7 11 9 0
14 -10 4 -10 6 -1 6 6 1 12 6 12 12 0 5 -6 7 -12 4 -7 -4 -5 0 4 8 10 8 15 16
12 19 -2 3 11 22 31 42 19 20 35 42 35 48 0 6 -13 34 -28 62 -16 28 -27 57
-24 65 2 8 0 11 -5 8 -13 -8 -11 45 2 59 6 6 10 43 10 83 0 39 3 71 7 71 15 0
3 25 -17 38 -19 12 -19 12 -1 10 15 -2 20 4 22 30 1 19 -2 30 -7 26 -6 -3 -8
-13 -5 -21 4 -9 2 -11 -6 -7 -7 5 -8 3 -3 -6 5 -8 4 -11 -3 -6 -6 3 -10 15 -9
26 1 10 5 16 9 14 4 -3 8 -1 8 5 0 5 -4 12 -9 16 -12 7 -10 45 2 45 5 0 4 7
-3 15 -10 12 -10 18 0 30 7 8 8 15 3 15 -5 0 -9 14 -9 30 0 25 3 29 18 24 15
-4 18 0 19 28 0 30 4 54 14 98 2 8 4 39 4 68 1 38 4 51 13 46 8 -5 9 2 5 26
-4 18 -7 45 -7 61 0 18 -5 29 -14 29 -10 0 -13 11 -12 35 1 19 -3 35 -8 35 -4
0 -2 8 5 17 8 10 9 14 2 10 -9 -6 -11 3 -7 33 3 25 1 40 -6 40 -6 0 -8 -6 -4
-12 5 -10 3 -10 -7 0 -17 16 -19 79 -3 79 7 0 10 -10 8 -23 -2 -13 0 -25 5
-28 11 -7 9 80 -3 91 -4 4 -6 2 -4 -6 1 -7 -4 -16 -12 -18 -12 -4 -12 -3 -2 5
19 13 19 17 4 35 -8 9 -9 18 -3 21 5 4 8 15 6 26 -2 11 0 22 4 25 5 2 7 35 5
72 -2 38 -6 140 -9 228 -2 88 -7 175 -9 192 -3 18 0 35 5 38 5 4 9 -11 9 -31
0 -21 3 -35 6 -31 6 6 -5 126 -36 372 -5 44 -12 105 -15 135 -4 30 -8 69 -10
86 -2 16 -7 59 -10 95 -10 89 -12 108 -19 154 -4 22 -8 54 -11 70 -8 53 -14
88 -30 180 -20 121 -24 138 -42 225 -8 41 -16 82 -18 90 -2 8 -6 28 -11 44 -4
19 -3 27 4 23 9 -6 -1 48 -43 228 -23 99 -68 241 -79 250 -10 8 -68 218 -91
325 -2 8 -14 62 -28 120 -14 58 -28 119 -30 135 -21 139 -42 232 -58 260 -11
18 -22 41 -24 51 -2 11 -14 57 -25 104 -12 47 -23 92 -25 100 -2 8 -29 116
-60 240 -55 223 -93 382 -101 430 -3 14 -7 32 -10 40 -3 8 -14 47 -25 85 -50
192 -158 487 -243 669 -88 188 -282 473 -446 656 -18 19 -48 60 -67 90 -19 30
-58 91 -86 135 -257 401 -663 763 -1037 924 -627 268 -781 314 -1595 475 -407
80 -601 114 -760 132 -27 3 -61 8 -75 11 -57 12 -577 11 -665 -2z m5452 -5007
c-3 -8 -6 -5 -6 6 -1 11 2 17 5 13 3 -3 4 -12 1 -19z m-9802 -983 c97 -6 125
-9 203 -21 20 -3 46 -7 57 -8 112 -17 150 -23 173 -30 9 -3 34 -7 54 -10 21
-3 59 -11 85 -17 27 -6 57 -12 68 -14 96 -18 184 -39 181 -42 -2 -3 -28 0 -58
6 -29 5 -69 13 -88 16 -19 2 -79 12 -133 20 -53 8 -123 18 -154 21 -31 3 -60
7 -63 9 -4 2 -58 7 -121 10 -63 4 -145 8 -184 10 -38 2 -90 8 -115 14 -69 15
-331 4 -485 -20 -33 -5 -67 -8 -75 -8 -17 1 30 16 74 24 16 3 32 8 35 10 4 2
25 6 47 9 22 4 51 9 64 11 14 3 70 8 125 12 55 3 101 6 102 7 3 2 108 -2 208
-9z m-115 -48 c-3 -3 -52 -7 -110 -10 -58 -3 -136 -10 -175 -16 -59 -8 -132
-17 -195 -22 -8 0 -4 -4 10 -8 21 -6 14 -10 -42 -24 -138 -35 -364 -153 -441
-229 -15 -16 -32 -28 -38 -28 -5 0 -7 -5 -3 -12 4 -7 3 -8 -4 -4 -7 4 -12 3
-12 -2 0 -6 -7 -13 -15 -16 -25 -9 11 47 72 114 80 87 260 199 345 215 21 4
36 10 34 14 -2 3 15 6 37 7 43 0 291 16 294 18 5 4 247 7 243 3z m10217 -804
c-3 -10 -5 -4 -5 12 0 17 2 24 5 18 2 -7 2 -21 0 -30z m-5610 -289 c-3 -3 -12
-4 -19 -1 -8 3 -5 6 6 6 11 1 17 -2 13 -5z m518 -182 c-3 -3 -11 0 -18 7 -9
10 -8 11 6 5 10 -3 15 -9 12 -12z m-5726 -220 c52 -34 138 -85 193 -112 54
-28 98 -53 98 -55 0 -3 -201 80 -264 110 -35 17 -166 136 -166 151 0 4 10 -2
23 -13 12 -11 64 -48 116 -81z m6236 40 c-3 -3 -11 0 -18 7 -9 10 -8 11 6 5
10 -3 15 -9 12 -12z m45 -12 c8 -5 11 -10 5 -10 -5 0 -17 5 -25 10 -8 5 -10
10 -5 10 6 0 17 -5 25 -10z m220 -79 c80 -29 164 -61 187 -72 24 -10 45 -19
48 -19 22 0 447 -179 665 -280 188 -87 252 -121 263 -138 5 -7 12 -10 18 -7 5
4 9 1 9 -4 0 -6 3 -10 8 -9 13 4 52 -13 52 -23 0 -5 3 -8 8 -7 4 2 22 -4 40
-11 27 -11 32 -18 28 -35 -5 -21 -5 -21 9 -2 8 11 15 14 15 7 0 -6 6 -11 13
-9 6 1 26 -6 42 -15 20 -12 23 -16 8 -12 -16 4 -21 2 -19 -12 2 -9 9 -19 16
-21 8 -3 10 0 5 9 -5 8 -5 11 0 7 4 -4 14 -3 20 2 9 8 14 6 19 -5 3 -9 10 -14
14 -11 5 3 18 -3 29 -14 12 -10 23 -18 25 -17 2 1 0 -2 -4 -8 -13 -15 -9 -30
4 -17 7 7 17 12 22 12 6 0 4 -5 -4 -11 -12 -9 -11 -10 7 -6 28 6 69 -21 54
-36 -16 -16 -13 -31 3 -18 8 6 20 10 27 9 22 -5 48 -31 42 -41 -4 -6 1 -8 11
-4 9 4 15 3 13 -1 -7 -10 19 -32 29 -24 5 4 2 -2 -6 -12 -14 -18 -13 -19 3
-13 11 4 29 -1 47 -15 28 -20 29 -23 15 -44 -14 -21 -13 -23 5 -21 14 1 19 6
15 17 -4 8 3 5 15 -8 12 -12 18 -27 14 -34 -5 -8 -2 -9 10 -5 9 4 15 3 11 -2
-3 -5 0 -11 5 -13 6 -2 13 -12 15 -23 2 -11 4 -22 4 -25 1 -3 5 1 10 8 7 11 9
10 14 -3 5 -10 3 -14 -4 -9 -7 4 -10 1 -7 -7 3 -8 11 -14 19 -14 8 0 14 -7 14
-15 0 -8 -6 -15 -14 -15 -8 0 -16 -6 -19 -14 -3 -9 0 -11 8 -6 8 5 11 4 7 -2
-4 -6 1 -17 10 -24 14 -12 15 -11 9 8 -4 12 -2 24 4 28 15 9 25 -24 11 -38
-17 -17 -13 -31 4 -17 14 12 19 7 16 -14 -1 -4 4 -15 10 -23 10 -11 10 -13 -1
-11 -7 2 -15 -3 -17 -10 -3 -7 -1 -12 4 -11 21 4 31 -2 28 -18 -1 -10 2 -24 8
-30 6 -9 6 -13 -2 -13 -6 0 -11 -5 -11 -11 0 -5 4 -8 9 -5 5 4 8 -1 7 -10 -1
-8 -9 -20 -17 -25 -8 -5 -10 -9 -5 -9 5 0 1 -9 -9 -20 -10 -11 -16 -23 -13
-26 3 -3 15 7 27 22 17 22 21 23 18 8 -1 -11 -10 -30 -20 -44 -23 -34 -21 -51
3 -21 11 13 20 19 20 13 0 -16 -30 -43 -41 -37 -11 7 -11 3 -3 -19 6 -15 8
-15 21 1 13 17 13 16 4 -3 -6 -12 -7 -25 -3 -29 4 -4 -3 -2 -15 6 -12 7 -20
16 -17 20 2 4 0 10 -6 14 -5 3 -10 11 -10 16 0 6 5 7 10 4 6 -3 10 -1 10 5 0
7 -6 10 -13 7 -8 -3 -14 1 -14 8 0 7 6 11 14 8 7 -3 13 -1 13 5 0 6 -8 9 -17
7 -10 -2 -21 -4 -25 -4 -4 -1 -4 -11 1 -23 17 -43 24 -63 28 -83 2 -10 8 -22
14 -26 6 -3 10 -9 10 -13 -1 -8 -60 -126 -64 -126 -1 0 -3 20 -4 45 -7 146
-80 290 -233 465 -87 99 -368 374 -452 442 -22 18 -46 38 -52 44 -56 53 -374
274 -395 274 -6 0 -11 3 -11 8 0 4 -15 15 -33 26 -17 10 -48 28 -67 39 -214
124 -541 281 -767 368 -29 11 -53 23 -53 26 0 3 6 3 13 0 6 -2 77 -28 157 -56z
m4328 -78 c-6 -8 -7 -13 -1 -13 5 0 10 -6 10 -14 0 -8 -5 -12 -11 -10 -6 2
-12 23 -13 46 -3 38 -2 40 11 22 10 -13 11 -23 4 -31z m-14 -55 c-5 -7 -2 -9
8 -5 12 4 15 -1 13 -28 -1 -19 -8 -42 -16 -51 -12 -16 -12 -17 3 -12 13 6 16
1 14 -25 -2 -18 2 -36 8 -40 7 -6 4 -7 -6 -3 -19 6 -25 -9 -8 -19 6 -4 8 -11
5 -16 -4 -5 -1 -9 6 -9 8 0 8 -4 -1 -15 -10 -12 -10 -15 1 -15 9 0 10 -3 4 -8
-6 -4 -10 -17 -9 -29 1 -13 -3 -23 -9 -23 -6 0 -6 -5 0 -12 12 -17 10 -68 -2
-68 -14 0 -15 44 -1 52 8 6 8 8 0 8 -6 0 -11 11 -11 25 0 13 3 22 8 19 5 -3 9
0 9 5 0 6 -5 11 -11 11 -6 0 -9 6 -6 14 3 7 0 20 -6 27 -10 11 -9 11 6 0 19
-15 24 -2 5 17 -13 13 -19 54 -7 46 4 -2 10 0 14 6 3 5 1 10 -5 10 -7 0 -10 7
-7 15 4 8 1 17 -4 21 -8 4 -7 10 0 17 7 7 7 14 -1 24 -9 11 -7 12 8 6 17 -6
18 -5 4 12 -9 11 -10 16 -2 11 6 -4 12 -3 12 2 0 6 -7 13 -16 16 -13 5 -12 26
2 26 3 0 2 -5 -2 -12z m12 -698 c0 -22 -3 -40 -6 -40 -4 0 -6 18 -6 40 0 22 3
40 6 40 4 0 6 -18 6 -40z m1 -95 c0 -8 -4 -12 -9 -9 -4 3 -8 9 -8 15 0 5 4 9
8 9 5 0 9 -7 9 -15z m3 -29 c0 -3 -4 -8 -10 -11 -5 -3 -10 -1 -10 4 0 6 5 11
10 11 6 0 10 -2 10 -4z m-8150 -90 c164 -57 164 -57 99 -50 -31 3 -92 19 -135
35 -44 17 -87 33 -97 36 -15 5 -16 8 -5 14 7 5 13 9 13 9 0 0 56 -20 125 -44z
m5780 -471 c7 -9 8 -15 2 -15 -5 0 -12 7 -16 15 -3 8 -4 15 -2 15 2 0 9 -7 16
-15z m-973 -681 c-3 -3 -12 -4 -19 -1 -8 3 -5 6 6 6 11 1 17 -2 13 -5z m-104
-21 c-7 -2 -19 -2 -25 0 -7 3 -2 5 12 5 14 0 19 -2 13 -5z m-93 -13 c0 -5 -17
-9 -37 -9 l-38 2 35 7 c19 4 36 8 38 9 1 0 2 -3 2 -9z m-135 -20 c-3 -5 -12
-10 -18 -10 -7 0 -6 4 3 10 19 12 23 12 15 0z m48 3 c-7 -2 -19 -2 -25 0 -7 3
-2 5 12 5 14 0 19 -2 13 -5z m3445 -377 c-15 -30 -17 -31 -15 -7 1 11 5 21 9
21 4 0 5 8 2 18 -5 14 -4 14 4 3 7 -10 7 -21 0 -35z m106 -82 c-53 -119 -130
-254 -155 -269 -6 -4 0 10 14 31 13 22 54 96 91 167 37 70 69 127 71 127 2 0
-7 -25 -21 -56z m-109 27 c0 -9 -4 -21 -8 -27 -3 -6 -5 -21 -2 -32 3 -15 0
-19 -11 -15 -9 3 -14 0 -12 -7 2 -7 -4 -15 -12 -17 -10 -3 -11 -2 -4 4 6 4 10
18 9 30 -1 12 2 20 6 18 4 -3 9 2 13 10 3 8 0 15 -7 15 -8 0 -8 3 2 9 7 5 11
13 8 18 -3 5 0 10 7 10 7 0 12 -8 11 -16z m85 -20 c-12 -23 -33 -19 -24 4 4 8
10 12 15 9 5 -3 9 0 9 7 0 7 3 10 6 7 3 -4 1 -16 -6 -27z m-25 -31 c3 -5 1
-10 -4 -10 -6 0 -11 5 -11 10 0 6 2 10 4 10 3 0 8 -4 11 -10z m-145 -329 c-17
-33 -32 -61 -33 -61 -2 0 -3 9 -3 19 0 11 3 18 6 16 3 -2 16 19 29 46 14 27
26 47 28 45 2 -2 -10 -31 -27 -65z m-180 9 c-6 -11 -15 -20 -20 -20 -6 0 -2 9
7 20 10 11 19 20 21 20 1 0 -2 -9 -8 -20z m-27 -47 c-3 -7 -6 -13 -8 -13 -2 0
-5 6 -8 13 -3 8 1 14 8 14 7 0 11 -6 8 -14z m-37 -39 c-19 -19 -21 -11 -4 16
7 11 14 16 16 10 2 -5 -4 -17 -12 -26z m-2606 -144 c0 -5 -4 -10 -10 -10 -5 0
-10 5 -10 10 0 6 5 10 10 10 6 0 10 -4 10 -10z m897 -75 c0 -8 -4 -15 -9 -15
-10 0 -11 14 -1 23 9 10 10 9 10 -8z m-10 -100 c0 -8 -4 -12 -9 -9 -5 3 -6 10
-3 15 9 13 12 11 12 -6z m213 -5 c0 -5 -4 -10 -10 -10 -5 0 -10 5 -10 10 0 6
5 10 10 10 6 0 10 -4 10 -10z"/>
<path d="M10980 7541 c0 -6 5 -11 10 -11 6 0 22 -11 36 -25 24 -24 51 -35 39
-15 -3 6 1 7 10 4 14 -6 14 -8 -2 -19 -15 -11 -15 -13 8 -26 13 -7 28 -12 32
-11 5 1 6 -2 2 -8 -7 -12 33 -49 53 -50 6 0 11 -4 10 -8 -4 -12 54 -72 64 -66
5 3 6 10 2 15 -3 5 -10 6 -16 3 -7 -4 -8 -2 -4 5 4 6 11 9 16 6 5 -3 8 4 7 15
-2 25 -6 25 -23 3 -13 -17 -14 -17 -8 0 4 10 1 17 -6 17 -6 0 -8 -4 -5 -10 3
-5 2 -10 -4 -10 -5 0 -9 9 -8 19 0 11 4 19 7 19 20 -2 30 4 24 14 -4 7 -3 8 5
4 6 -4 8 -12 5 -18 -5 -8 -1 -9 10 -5 27 11 40 -3 19 -20 -10 -8 -13 -12 -7
-9 6 3 11 -1 11 -9 0 -8 -4 -15 -9 -15 -5 0 -6 -5 -2 -12 5 -7 11 -5 21 7 7
11 13 14 13 8 0 -6 14 -9 30 -8 17 1 33 -2 37 -8 4 -6 1 -7 -6 -2 -10 6 -11 3
-1 -15 7 -13 8 -20 2 -16 -6 3 -13 2 -17 -4 -4 -6 -11 -7 -17 -4 -6 4 -8 3 -5
-3 11 -18 52 -8 52 13 0 10 4 24 8 31 5 7 0 16 -13 23 -14 8 -20 8 -20 0 0 -7
-6 -8 -17 -1 -10 5 -22 10 -28 10 -5 1 -10 7 -10 15 0 16 -26 49 -33 41 -3 -3
-11 0 -19 6 -10 9 -18 8 -31 -5 -20 -17 -37 -22 -27 -7 3 6 -3 14 -12 20 -10
6 -13 11 -6 11 6 0 10 8 9 17 -3 20 -46 25 -53 6 -8 -20 -25 -4 -18 17 4 14
-2 23 -24 35 -17 8 -31 12 -31 9 0 -4 -8 0 -17 8 -28 23 -43 30 -43 19z m164
-112 c-3 -5 2 -12 10 -15 9 -3 13 -10 10 -15 -3 -5 -12 -2 -21 6 -8 9 -13 19
-9 22 3 3 0 13 -7 22 -11 14 -10 14 5 2 10 -7 15 -17 12 -22z"/>
<path d="M11274 7308 c-3 -4 -10 -6 -15 -3 -5 4 -9 -1 -9 -10 0 -8 11 -20 25
-25 28 -11 35 -23 8 -13 -13 4 -11 -1 6 -15 13 -12 28 -22 33 -22 4 0 8 -7 8
-15 0 -8 9 -20 20 -27 11 -7 20 -19 20 -26 0 -9 6 -12 16 -8 11 4 15 2 11 -7
-3 -8 14 -34 38 -60 24 -25 41 -48 38 -51 -4 -3 1 -6 10 -6 10 0 14 5 11 15
-4 8 -10 15 -16 15 -5 0 -6 5 -2 11 4 8 9 7 16 -2 8 -11 9 -11 5 1 -2 8 -10
14 -16 12 -8 -1 -9 2 -5 10 6 10 5 10 -7 2 -11 -9 -17 -9 -27 2 -10 11 -10 14
0 14 9 0 9 3 -2 9 -8 6 -18 7 -22 5 -5 -3 -7 -2 -6 3 1 4 -2 19 -6 32 -6 16
-11 20 -16 11 -5 -8 -9 -7 -13 5 -4 9 -3 13 3 10 5 -3 8 4 7 15 -2 25 -6 25
-24 3 -13 -16 -13 -16 -3 5 6 12 7 22 3 23 -24 2 -46 8 -51 15 -4 4 1 4 11 1
10 -4 17 -1 17 6 0 7 4 6 10 -3 13 -21 45 0 44 29 -1 22 10 28 21 11 3 -5 2
-10 -4 -10 -5 0 -8 -7 -7 -15 2 -17 16 -32 17 -19 0 5 2 19 5 31 2 13 -3 23
-12 27 -18 7 -37 -2 -29 -14 5 -9 -18 -21 -52 -27 -13 -2 -23 1 -23 7 0 5 0
13 0 18 0 4 6 7 13 7 6 0 12 7 12 14 0 16 -52 24 -61 9z m29 -11 c7 3 9 2 4
-2 -4 -5 -16 -9 -27 -10 -16 -1 -17 1 -8 13 8 9 14 10 16 3 2 -6 9 -8 15 -4z"/>
<path d="M11435 7270 c-3 -5 -4 -10 -1 -10 3 0 2 -10 -3 -23 -8 -20 -6 -23 15
-23 13 0 24 4 24 9 0 4 6 5 13 2 6 -4 1 3 -13 16 -14 12 -24 26 -22 30 3 12
-5 11 -13 -1z"/>
<path d="M11386 7232 c-3 -6 -2 -13 4 -17 6 -4 7 -11 4 -17 -5 -7 -2 -8 6 -3
8 5 11 3 8 -6 -3 -8 1 -26 9 -41 13 -26 24 -33 47 -29 5 1 3 -6 -5 -15 -12
-16 -12 -17 3 -12 32 13 57 -43 35 -79 -4 -7 0 -16 10 -22 10 -5 18 -13 18
-18 0 -4 4 -7 9 -5 5 2 6 -4 3 -11 -3 -8 3 -24 13 -34 10 -11 27 -37 37 -58
18 -34 21 -36 26 -16 3 11 1 19 -3 16 -5 -3 -11 -1 -14 4 -4 5 -2 12 4 16 6 4
7 11 4 17 -4 6 -10 5 -16 -3 -7 -11 -8 -10 -4 4 4 12 2 16 -6 11 -7 -5 -8 -3
-3 6 6 9 4 11 -5 5 -9 -6 -11 -4 -5 5 4 7 2 16 -6 21 -7 4 -10 11 -6 16 5 4
12 1 17 -7 6 -8 10 -13 11 -10 0 3 2 13 4 22 2 11 -3 16 -16 15 -10 -1 -19 -6
-19 -11 0 -6 -7 0 -16 12 -8 12 -20 19 -26 16 -7 -4 -8 -2 -4 5 4 6 12 9 17 6
13 -9 11 9 -3 25 -11 12 -10 12 3 2 28 -21 29 -1 1 25 -15 14 -20 21 -12 15
12 -9 19 -7 28 9 16 25 29 24 37 -2 6 -17 9 -18 16 -8 4 7 11 10 16 6 4 -5 1
-12 -7 -17 -8 -6 -13 -10 -10 -11 3 0 13 -2 23 -4 9 -2 17 1 17 6 0 6 6 7 13
4 6 -4 1 3 -13 15 -14 12 -25 27 -25 33 0 6 -17 11 -39 13 -21 1 -33 -2 -26
-6 8 -5 7 -9 -5 -14 -9 -3 -21 -4 -26 0 -5 3 -9 -1 -9 -8 0 -10 -3 -9 -9 2 -6
8 -7 18 -4 24 4 5 -3 7 -15 4 -13 -4 -20 -2 -16 3 3 5 0 8 -6 7 -6 -2 -18 6
-26 18 -12 18 -12 21 0 21 8 0 12 -5 10 -12 -3 -6 5 -11 17 -12 16 -2 18 1 10
11 -6 8 -9 22 -5 32 5 16 4 16 -5 4 -9 -13 -11 -13 -11 0 0 13 -1 13 -10 0 -5
-8 -10 -10 -10 -4 0 19 -27 48 -34 36z m214 -118 c0 -8 -19 -13 -24 -6 -3 5 1
9 9 9 8 0 15 -2 15 -3z"/>
<path d="M11470 7195 c0 -8 0 -18 0 -22 0 -14 33 -8 38 6 3 8 0 11 -6 7 -6 -3
-14 -1 -18 5 -5 8 -3 9 6 4 9 -5 11 -4 6 3 -10 17 -26 15 -26 -3z"/>
<path d="M11510 7200 c0 -5 5 -10 12 -10 6 0 3 -8 -7 -20 -10 -11 -21 -17 -26
-15 -4 3 -10 1 -13 -4 -3 -5 1 -12 10 -15 8 -3 13 -9 10 -14 -2 -4 5 -9 16 -9
20 -2 20 -1 2 12 -16 11 -17 16 -6 27 11 11 12 10 7 -4 -4 -10 -4 -18 0 -18 4
0 14 8 22 18 10 11 12 12 8 2 -4 -8 1 -6 10 5 15 19 14 20 -5 29 -11 5 -20 13
-20 18 0 4 -4 8 -10 8 -5 0 -10 -4 -10 -10z m40 -24 c0 -2 -7 -7 -16 -10 -8
-3 -12 -2 -9 4 6 10 25 14 25 6z"/>
<path d="M11540 7081 c-9 -18 -8 -20 7 -14 10 3 15 3 11 -2 -4 -4 -3 -14 3
-21 7 -8 6 -14 -2 -20 -8 -5 -9 -3 -4 6 5 8 4 11 -3 6 -6 -4 -8 -14 -5 -23 5
-12 3 -14 -8 -8 -8 5 -11 4 -6 0 12 -13 36 -15 44 -3 4 7 1 8 -7 3 -9 -6 -11
-4 -5 5 6 10 11 9 21 -5 7 -10 11 -22 7 -28 -3 -6 -1 -7 5 -3 7 4 12 2 12 -4
0 -6 5 -8 10 -5 6 3 10 0 10 -7 0 -10 2 -10 9 1 6 9 11 10 15 2 4 -6 2 -11 -5
-11 -8 0 -9 -3 0 -13 6 -8 8 -17 4 -20 -3 -4 -2 -7 3 -7 6 0 15 5 21 11 7 7
12 6 16 -5 4 -11 1 -13 -11 -9 -15 6 -15 5 -3 -10 13 -16 31 -15 31 3 0 5 -13
25 -30 43 -29 34 -39 54 -21 42 12 -7 24 12 16 25 -5 8 -11 8 -19 1 -7 -6 -17
-7 -21 -3 -5 4 -6 0 -2 -10 4 -11 1 -15 -11 -13 -17 2 -19 14 -10 45 3 8 3 12
1 8 -5 -8 -50 35 -46 44 9 17 -17 16 -27 -1z m60 -66 c0 -5 -5 -3 -10 5 -5 8
-10 20 -10 25 0 6 5 3 10 -5 5 -8 10 -19 10 -25z"/>
<path d="M11622 7025 c-16 -35 -15 -43 3 -19 8 10 15 15 15 9 0 -5 4 -3 9 5
10 15 6 30 -8 30 -4 0 -13 -11 -19 -25z"/>
<path d="M11585 6949 c-8 -11 22 -49 38 -49 6 0 3 6 -7 13 -16 12 -16 13 1 13
13 0 19 -8 20 -29 0 -20 -2 -25 -8 -16 -7 12 -10 12 -21 0 -8 -9 -9 -11 -1 -7
17 9 24 -9 14 -36 -6 -17 -4 -30 11 -50 11 -16 17 -28 13 -28 -3 0 3 -17 14
-38 13 -25 26 -38 40 -38 11 0 18 2 16 5 -3 2 3 10 13 17 9 7 18 17 18 23 1 6
2 16 3 22 0 5 6 7 13 3 8 -5 8 -3 2 7 -5 8 -10 25 -10 39 -3 53 -4 56 -15 37
-8 -13 -7 -22 1 -33 12 -13 7 -18 -13 -15 -5 1 -7 -4 -4 -11 2 -7 11 -12 18
-10 8 1 1 -10 -16 -24 -16 -15 -30 -31 -30 -35 0 -4 -4 -11 -9 -16 -5 -4 -6
-3 -3 4 4 6 1 14 -5 17 -9 3 -6 11 10 25 12 11 18 22 13 25 -5 4 -17 -4 -27
-16 -12 -17 -15 -18 -10 -5 4 13 2 16 -7 11 -9 -5 -9 -4 1 7 6 7 12 17 12 21
0 4 -6 7 -12 6 -7 -2 -12 3 -10 10 1 8 -1 11 -6 8 -22 -13 -4 49 18 63 14 10
21 11 16 4 -6 -12 4 -18 26 -14 4 0 5 -7 2 -17 -5 -15 -4 -15 6 -2 9 12 10 10
5 -10 -5 -22 -5 -23 6 -7 8 14 8 22 0 30 -14 14 -14 28 0 25 6 -2 13 8 14 21
l2 24 -20 -27 c-19 -26 -20 -26 -40 -9 -15 13 -18 14 -13 3 4 -8 1 -6 -8 4 -8
10 -13 22 -11 27 5 8 -33 39 -47 39 -4 0 -10 -5 -13 -11z m150 -229 c-3 -5
-12 -10 -18 -10 -7 0 -6 4 3 10 19 12 23 12 15 0z"/>
<path d="M11647 6852 c-7 -15 -1 -36 11 -40 7 -2 11 1 10 6 -2 6 0 10 5 11 6
1 9 -5 6 -11 -6 -12 -3 -55 4 -51 4 3 6 11 3 19 -3 7 0 16 7 20 7 4 9 4 5 -1
-4 -4 -2 -17 4 -29 7 -11 11 -25 10 -29 -1 -5 2 -6 8 -2 8 5 8 11 0 20 -14 16
-4 38 12 29 7 -4 8 -2 4 5 -4 6 -12 9 -17 6 -5 -4 -14 5 -20 19 -11 23 -45 42
-52 28z"/>
<path d="M11749 6683 c-13 -16 -12 -17 4 -4 9 7 17 15 17 17 0 8 -8 3 -21 -13z"/>
<path d="M13807 10783 c65 -259 101 -388 97 -348 -11 94 -85 375 -99 375 -3 0
-2 -12 2 -27z"/>
<path d="M14149 8354 c0 -16 -2 -59 -3 -96 -1 -38 -1 -66 1 -64 13 13 21 171
9 183 -3 4 -6 -7 -7 -23z"/>
<path d="M14115 8242 c2 -12 -1 -24 -6 -27 -10 -7 -3 -25 9 -25 10 0 9 57 0
66 -4 4 -6 -3 -3 -14z"/>
<path d="M14146 7633 c-6 -14 -5 -15 5 -6 7 7 10 15 7 18 -3 3 -9 -2 -12 -12z"/>
<path d="M14100 7520 c0 -5 7 -10 15 -10 8 0 15 5 15 10 0 6 -7 10 -15 10 -8
0 -15 -4 -15 -10z"/>
<path d="M14113 7493 c4 -3 2 -12 -4 -19 -6 -7 -7 -19 -3 -26 12 -17 12 -32 1
-39 -5 -4 -6 -12 -3 -18 13 -21 23 -11 23 24 0 19 -4 35 -9 35 -4 0 -8 5 -8
11 0 5 5 7 10 4 6 -3 10 3 10 14 0 12 -5 21 -12 21 -6 0 -8 -3 -5 -7z"/>
<path d="M5462 6751 c-13 -62 -21 -116 -18 -119 3 -3 2 -10 -3 -16 -9 -12 -24
-96 -17 -96 5 0 46 126 46 139 0 3 -5 -1 -10 -9 -15 -24 -12 3 11 74 11 37 19
84 17 104 -2 28 -8 10 -26 -77z"/>
<path d="M5492 6741 c-18 -54 -20 -75 -12 -95 13 -34 13 -49 0 -41 -5 3 -10 0
-10 -8 0 -8 -3 -29 -6 -46 -4 -17 -2 -31 3 -31 5 0 18 38 30 85 11 47 16 85
12 85 -5 0 -9 -12 -10 -27 0 -16 -3 -22 -6 -16 -2 7 3 45 12 84 9 39 14 73 12
75 -2 2 -13 -27 -25 -65z"/>
<path d="M14150 5670 c-6 -11 -8 -20 -6 -20 3 0 10 9 16 20 6 11 8 20 6 20 -3
0 -10 -9 -16 -20z"/>
<path d="M9367 5350 c6 -7 9 -18 6 -25 -4 -11 21 -26 47 -30 3 0 11 -4 18 -8
6 -5 12 -5 12 0 0 4 5 1 10 -7 9 -13 10 -13 10 0 1 12 3 11 11 -2 5 -10 17
-18 25 -18 8 0 12 5 9 10 -4 6 -1 19 6 28 11 14 11 15 -1 5 -16 -15 -34 -17
-25 -4 3 5 1 12 -4 16 -5 3 -14 -3 -20 -12 -10 -17 -11 -17 -16 2 -7 22 -43
50 -52 41 -3 -3 -15 0 -27 6 -17 8 -19 8 -9 -2z m68 -36 c11 -17 12 -23 4 -18
-14 9 -19 10 -39 13 -5 0 -10 6 -10 12 0 8 6 7 17 -2 15 -12 16 -12 10 4 -9
25 -2 21 18 -9z"/>
<path d="M9594 5272 c2 -9 11 -17 22 -17 10 0 18 -6 17 -12 -4 -19 14 -16 21
3 8 22 8 26 -4 19 -6 -4 -22 0 -34 9 -22 14 -24 14 -22 -2z"/>
<path d="M13883 5253 c4 -6 -2 -18 -12 -27 -10 -9 -17 -27 -16 -39 0 -12 -9
-34 -22 -48 l-24 -26 23 1 c13 1 22 7 20 15 -1 7 5 19 14 26 13 9 14 14 5 19
-9 6 -9 11 0 22 6 8 8 14 4 14 -5 0 0 9 9 19 13 14 14 21 5 27 -7 4 -10 3 -6
-3z"/>
<path d="M9764 5221 c4 -6 2 -11 -5 -11 -9 0 -9 -3 1 -14 6 -8 18 -12 26 -9 9
3 14 0 12 -7 -2 -7 5 -14 15 -15 9 -2 17 1 17 6 0 5 5 9 11 9 5 0 7 -5 3 -12
-4 -7 -3 -8 5 -4 15 10 4 27 -16 24 -9 -2 -18 3 -20 10 -7 17 7 15 45 -8 30
-18 32 -23 20 -37 -7 -9 -8 -14 -2 -10 6 3 16 -5 23 -20 6 -14 14 -23 18 -20
3 4 23 -3 44 -14 21 -10 50 -20 64 -21 14 -1 25 -5 25 -9 0 -3 6 -6 13 -6 6 0
17 -2 22 -3 29 -7 43 15 22 36 -7 7 -11 -10 -8 -31 1 -5 -8 1 -19 14 -11 13
-20 18 -20 12 0 -7 -5 -9 -12 -4 -7 4 -22 9 -33 9 -41 3 -46 4 -41 12 2 4 0
14 -6 22 -8 12 -8 11 -3 -5 6 -20 6 -20 -13 0 -13 13 -18 30 -16 50 2 17 0 25
-4 20 -11 -17 -39 -12 -61 12 -13 14 -30 20 -48 18 -15 -1 -36 2 -47 7 -13 7
-16 7 -12 -1z m26 -15 c0 -3 -4 -8 -10 -11 -5 -3 -10 -1 -10 4 0 6 5 11 10 11
6 0 10 -2 10 -4z m134 -52 c3 -8 2 -12 -4 -9 -6 3 -10 10 -10 16 0 14 7 11 14
-7z m16 -38 c0 -10 -30 0 -34 11 -4 11 -1 11 14 3 11 -6 20 -12 20 -14z"/>
<path d="M10084 5143 c3 -6 0 -13 -6 -16 -7 -2 -9 -8 -5 -13 4 -5 12 -2 17 6
7 11 10 11 10 2 0 -7 -6 -15 -14 -18 -8 -3 -12 -12 -9 -20 4 -11 9 -7 20 12
12 24 12 29 -3 43 -9 9 -14 11 -10 4z"/>
<path d="M9996 5114 c-8 -21 -8 -21 9 -21 8 0 12 4 9 9 -8 12 10 10 23 -3 15
-15 34 -3 27 16 -4 8 -10 12 -15 9 -5 -3 -7 -11 -3 -17 3 -7 0 -5 -8 3 -18 21
-35 22 -42 4z"/>
<path d="M10129 5096 c-1 -3 -2 -14 -3 -23 -1 -10 -5 -24 -9 -30 -5 -7 -5 -13
-2 -13 8 0 36 27 35 35 0 8 10 6 11 -2 0 -5 5 -13 10 -19 10 -12 2 -24 -15
-24 -6 0 -5 4 3 9 8 5 9 11 3 15 -5 3 -12 -1 -16 -9 -7 -20 12 -29 29 -15 12
10 15 9 15 -4 0 -9 3 -15 8 -15 4 1 9 1 12 -1 3 -1 16 -4 30 -6 13 -3 29 -9
34 -14 4 -4 14 -6 21 -4 7 3 16 1 19 -5 4 -6 13 -8 21 -4 8 3 15 0 15 -6 0 -6
5 -11 11 -11 8 0 8 4 1 13 -6 6 -10 17 -10 22 -1 6 -11 17 -24 25 -23 14 -23
14 -5 -7 14 -16 15 -23 6 -29 -8 -4 -10 -3 -5 5 4 6 4 10 -1 9 -4 -2 -9 1 -10
6 -1 10 -24 26 -36 26 -4 0 -3 -10 3 -22 10 -22 10 -22 -4 -4 -8 10 -20 15
-27 10 -8 -5 -10 -3 -4 6 5 9 2 10 -13 6 -11 -4 -23 -2 -27 4 -3 5 -1 10 4 10
6 0 11 5 11 11 0 8 -4 8 -14 0 -10 -9 -15 -8 -19 4 -8 18 25 37 50 29 15 -5
16 -4 3 6 -10 8 -11 10 -2 8 21 -5 13 -23 -9 -21 -17 2 -17 0 -7 -17 17 -26
22 -25 38 6 12 21 12 27 1 33 -20 12 -76 7 -73 -7 3 -16 -4 -15 -33 4 -14 9
-26 14 -26 10z"/>
<path d="M10285 5080 c-3 -5 -3 -10 1 -10 4 0 -1 -7 -12 -15 -10 -8 -14 -15
-9 -15 6 0 4 -4 -3 -9 -11 -7 23 -8 81 -2 4 1 7 6 7 12 0 8 -4 8 -14 0 -11 -9
-16 -9 -22 0 -4 7 -3 9 4 5 6 -3 15 2 21 11 6 11 11 13 11 5 0 -7 4 -11 9 -7
5 3 12 1 16 -5 4 -6 11 -7 17 -4 6 4 8 2 4 -4 -3 -6 -1 -14 5 -17 7 -5 9 1 7
16 -3 23 -18 29 -85 31 -18 1 -30 5 -27 10 3 4 3 8 0 8 -3 0 -8 -4 -11 -10z
m12 -34 c0 -8 -6 -12 -15 -9 -11 5 -11 7 0 14 7 5 13 9 14 9 0 0 1 -6 1 -14z"/>
<path d="M10353 5031 c-10 -15 -9 -22 3 -32 8 -6 12 -14 10 -16 -9 -9 32 -45
43 -38 6 3 11 1 11 -4 0 -6 5 -11 11 -11 5 0 8 3 6 8 -3 4 1 12 8 19 11 10 15
10 19 0 3 -7 4 -3 3 8 -2 11 -8 19 -15 18 -7 -2 -9 4 -5 15 3 9 3 14 -2 10 -4
-4 -14 -3 -22 3 -7 6 -13 8 -13 3 0 -4 -10 2 -23 14 -22 21 -23 21 -34 3z m31
-31 c-8 -8 -15 -6 -25 6 -9 12 -10 15 -1 10 7 -4 12 -2 12 5 0 10 3 10 12 1 8
-8 9 -15 2 -22z m50 -41 c-5 -9 -24 -6 -42 5 -11 6 -10 12 5 26 17 16 19 16
30 -4 6 -11 9 -24 7 -27z"/>
<path d="M10401 4981 c-8 -5 -9 -11 -3 -15 5 -3 12 1 16 9 6 17 6 18 -13 6z"/>
<path d="M10424 5037 c3 -10 6 -21 6 -23 0 -3 4 -3 9 1 6 3 15 -4 21 -15 6
-11 15 -18 21 -15 12 8 12 -2 -2 -26 -5 -11 -14 -17 -20 -14 -15 10 -10 -11 6
-25 8 -7 22 -10 30 -6 8 3 15 1 15 -4 0 -5 9 -7 20 -5 11 2 20 0 20 -4 0 -7
15 -11 53 -12 9 0 17 -4 17 -10 0 -5 5 -9 11 -9 8 0 8 4 0 14 -8 10 -9 16 -1
21 6 3 8 11 5 16 -7 11 -26 12 -24 2 3 -21 -3 -24 -18 -12 -14 12 -16 12 -9
-1 4 -8 0 -6 -8 4 -12 15 -16 16 -16 5 0 -12 -2 -12 -10 1 -9 13 -10 13 -10 0
0 -9 -3 -11 -8 -5 -4 6 -15 11 -24 12 -35 1 -39 3 -32 14 4 8 9 7 16 -2 6 -10
7 -6 3 11 -4 15 -3 20 2 13 6 -9 12 -7 21 7 8 13 9 20 1 20 -5 0 -7 5 -3 12 4
7 3 8 -5 4 -6 -4 -9 -13 -5 -19 3 -7 -1 -3 -10 7 -8 10 -13 23 -10 27 5 8 -3
11 -22 8 -4 0 -11 5 -15 13 -7 10 -9 10 -9 -2 0 -13 -2 -13 -11 0 -9 12 -10
12 -5 -3z m56 -42 c0 -5 -5 -3 -10 5 -5 8 -10 20 -10 25 0 6 5 3 10 -5 5 -8
10 -19 10 -25z"/>
<path d="M13755 5020 c-3 -5 -1 -10 4 -10 6 0 11 5 11 10 0 6 -2 10 -4 10 -3
0 -8 -4 -11 -10z"/>
<path d="M10532 5000 c3 -9 0 -24 -8 -35 -18 -24 -18 -32 1 -32 8 0 12 4 9 9
-3 4 -1 8 5 8 11 0 8 47 -4 58 -5 4 -6 0 -3 -8z"/>
<path d="M10550 5000 c0 -15 14 -19 33 -9 14 8 18 8 13 0 -4 -6 -2 -11 3 -11
6 0 11 6 11 13 0 8 -12 14 -30 14 -16 0 -30 -3 -30 -7z"/>
<path d="M10626 4976 c4 -32 4 -32 13 -16 16 27 16 33 0 35 -10 2 -15 -4 -13
-19z"/>
<path d="M10659 4966 c-17 -18 -27 -22 -36 -14 -7 6 -11 13 -9 17 3 4 -7 6
-22 5 -45 -3 -48 -4 -32 -14 21 -14 33 -12 24 3 -4 6 -3 8 1 4 5 -4 10 -14 11
-22 2 -11 -2 -12 -16 -5 -24 13 -30 13 -30 -2 0 -6 3 -8 7 -5 3 4 17 0 31 -9
13 -9 22 -12 19 -7 -3 5 -2 14 2 21 5 9 14 6 31 -10 19 -18 22 -19 17 -5 -5
12 -3 16 5 11 8 -5 9 -2 5 9 -7 19 8 33 19 16 4 -8 9 -7 16 2 6 10 7 7 3 -8
-5 -17 -3 -21 7 -18 8 3 14 15 15 26 1 12 -1 19 -4 15 -3 -3 -14 -1 -23 4 -14
7 -24 4 -41 -14z"/>
<path d="M10735 4960 c-3 -5 -1 -10 4 -10 6 0 11 5 11 10 0 6 -2 10 -4 10 -3
0 -8 -4 -11 -10z"/>
<path d="M10752 4950 c-7 -11 -19 -20 -27 -20 -8 0 -15 -4 -15 -10 0 -5 3 -9
8 -7 4 1 8 -1 10 -5 5 -18 1 -20 -15 -7 -14 12 -16 12 -11 -1 3 -8 15 -14 27
-13 11 2 20 -1 18 -5 -3 -11 42 -52 48 -42 3 5 13 9 23 9 51 2 62 8 45 24 -3
4 -16 -1 -27 -10 -17 -15 -19 -15 -8 -1 8 9 9 19 4 22 -6 3 -13 -2 -17 -12 -6
-16 -8 -16 -22 3 -15 19 -15 19 -8 -5 l6 -25 -20 25 c-11 14 -18 27 -15 29 2
2 -1 10 -7 17 -7 8 -6 14 2 20 7 4 9 3 6 -3 -3 -5 0 -10 7 -10 7 0 12 8 11 18
-2 28 -9 30 -23 9z"/>
<path d="M10676 4933 c2 -46 4 -49 15 -31 7 12 6 24 -1 38 -14 26 -16 25 -14
-7z"/>
<path d="M10786 4923 c-3 -8 -10 -12 -14 -9 -5 3 -9 -1 -9 -9 0 -20 9 -19 34
4 20 19 21 19 32 -6 7 -14 15 -23 18 -19 3 3 11 2 17 -3 6 -4 19 -11 29 -14
15 -6 16 -4 7 13 -6 11 -8 25 -5 30 3 5 0 12 -6 16 -8 4 -9 3 -5 -4 4 -7 4
-12 -1 -13 -4 0 -16 -2 -25 -4 -11 -2 -15 2 -11 11 3 8 2 14 -3 13 -5 -1 -11
0 -14 1 -22 8 -40 6 -44 -7z m99 -33 c3 -5 1 -10 -4 -10 -6 0 -11 5 -11 10 0
6 2 10 4 10 3 0 8 -4 11 -10z"/>
<path d="M13727 4916 c-16 -23 -16 -25 3 -23 22 1 32 18 21 36 -6 9 -13 5 -24
-13z"/>
<path d="M10946 4904 c-10 -7 -24 -15 -30 -18 -7 -3 -7 -7 2 -14 11 -7 10 -10
-3 -16 -9 -3 -21 -4 -25 -1 -5 3 -11 1 -15 -5 -4 -6 -11 -8 -16 -5 -5 4 -9 2
-9 -3 0 -17 24 -30 54 -30 19 0 24 3 15 9 -10 6 -11 9 -1 9 6 0 11 5 10 12 -5
20 42 17 53 -4 5 -10 14 -16 20 -13 8 6 13 -8 10 -27 0 -5 4 -8 10 -8 6 0 9 7
6 14 -4 10 -1 13 9 9 14 -5 14 -3 3 16 -8 12 -15 17 -17 11 -2 -6 -16 -1 -31
10 -16 11 -32 16 -36 12 -5 -4 -5 -2 -1 5 4 7 13 10 21 6 8 -3 15 0 15 6 0 6
-5 11 -11 11 -5 0 -8 4 -4 9 10 16 -9 20 -29 5z m12 -14 c-12 -19 -28 -27 -28
-14 0 6 30 33 38 34 1 0 -3 -9 -10 -20z m-67 -63 c-13 -13 -26 -3 -16 12 3 6
11 8 17 5 6 -4 6 -10 -1 -17z"/>
<path d="M10803 4902 c-7 -4 -9 -13 -4 -21 6 -9 10 -7 14 8 3 12 4 21 4 21 -1
0 -7 -4 -14 -8z"/>
<path d="M10999 4905 c-7 -31 -1 -50 14 -50 10 0 22 -7 27 -15 5 -8 17 -15 27
-15 12 0 17 -7 15 -19 -3 -18 -3 -18 14 -1 21 20 27 45 12 45 -6 0 -7 -8 -4
-17 5 -15 3 -14 -9 2 -18 22 -24 23 -37 3 -6 -9 -8 -5 -4 12 3 14 3 19 0 12
-5 -10 -9 -10 -20 -1 -8 6 -14 17 -14 23 0 6 4 5 9 -3 6 -8 14 -10 22 -5 23
14 44 15 30 1 -16 -16 -14 -32 3 -18 14 12 46 5 46 -9 0 -5 8 -7 18 -5 9 1 23
-3 31 -9 17 -13 21 -12 32 6 7 10 9 10 9 -2 0 -13 2 -13 11 0 9 13 10 12 5 -3
-3 -10 -2 -16 3 -13 5 3 12 -1 15 -10 3 -8 11 -12 17 -8 8 4 9 3 5 -5 -6 -9
-11 -9 -24 1 -14 11 -15 10 -8 -7 4 -11 4 -16 0 -13 -4 4 -16 3 -27 -3 -11 -7
-17 -7 -13 -1 3 5 -1 15 -9 22 -12 10 -15 10 -15 -1 0 -8 -6 -3 -13 10 -6 13
-20 25 -29 27 -15 2 -16 -1 -6 -19 7 -12 12 -25 11 -28 -1 -3 9 -5 23 -3 18 2
24 -2 20 -11 -5 -14 1 -14 57 1 12 3 31 7 41 8 11 1 22 9 24 17 3 11 1 11 -8
-1 -8 -12 -10 -8 -6 18 2 18 0 30 -5 26 -5 -3 -7 -9 -4 -14 11 -17 -26 -3 -40
16 -8 10 -15 16 -15 12 0 -4 -12 -3 -26 2 -19 7 -23 7 -18 -2 5 -8 2 -9 -12
-4 -10 4 -27 9 -38 12 -10 2 -26 10 -35 17 -9 8 -27 13 -41 12 -14 -1 -33 2
-42 7 -10 5 -18 6 -19 3z"/>
<path d="M13615 4860 c-4 -6 -10 -8 -15 -5 -10 6 -32 -29 -24 -37 2 -3 -6 -12
-18 -19 -29 -18 -74 -18 -70 -1 1 9 -4 8 -21 -3 -14 -8 -31 -13 -39 -10 -8 3
-21 -1 -28 -10 -7 -8 -9 -15 -5 -15 4 0 -3 -9 -16 -19 -13 -10 -33 -17 -43
-15 -26 5 -37 -15 -24 -39 7 -14 13 -16 21 -8 13 13 28 15 25 4 -3 -9 5 -13
24 -13 6 0 8 3 5 7 -9 8 13 34 23 28 4 -2 15 4 25 15 19 21 17 24 -9 14 -9 -3
-13 -11 -9 -18 4 -6 -1 -4 -11 3 -17 14 -17 16 1 29 10 7 17 17 16 21 -3 13
38 5 46 -8 10 -16 24 -14 35 6 8 15 10 15 22 -1 11 -16 13 -16 19 3 3 12 10
21 14 21 4 0 22 18 40 40 17 22 30 40 27 40 -3 0 -8 -5 -11 -10z m-233 -162
c-9 -9 -12 -9 -12 1 0 7 -4 10 -9 6 -5 -3 -13 0 -17 6 -4 7 -3 9 4 5 6 -3 14
-1 17 5 5 8 10 8 18 0 8 -8 8 -14 -1 -23z m-47 3 c3 -5 0 -13 -6 -17 -7 -4 -9
-3 -5 4 3 5 0 13 -6 15 -9 4 -10 6 -1 6 6 1 14 -3 18 -8z"/>
<path d="M13675 4849 c-4 -5 -4 -13 -1 -16 3 -4 6 0 6 8 0 11 2 11 10 -1 6 -9
10 -10 10 -3 0 17 -17 25 -25 12z"/>
<path d="M13525 4840 c-4 -6 -11 -7 -17 -4 -7 4 -8 2 -4 -5 4 -6 12 -8 18 -5
7 5 9 1 5 -9 -3 -9 -3 -18 1 -21 12 -7 37 17 40 39 3 20 3 20 -11 1 -11 -15
-16 -16 -22 -6 -5 9 -4 11 3 6 7 -4 12 -2 12 3 0 14 -17 14 -25 1z"/>
<path d="M11190 4821 c0 -10 22 -31 33 -31 16 0 2 33 -15 36 -10 1 -18 -1 -18
-5z"/>
<path d="M11365 4817 c11 -8 23 -13 27 -11 4 2 9 0 13 -6 3 -5 11 -10 16 -10
16 0 5 23 -12 26 -7 2 -25 6 -39 10 -24 6 -24 6 -5 -9z"/>
<path d="M11063 4813 c-15 -5 -17 -23 -4 -23 5 0 11 7 15 15 3 8 4 15 3 14 -1
0 -8 -3 -14 -6z"/>
<path d="M11357 4795 c-9 -22 35 -44 96 -48 16 -1 34 -9 41 -19 8 -11 17 -13
28 -7 12 7 21 4 32 -12 15 -22 15 -22 12 5 -3 25 -16 50 -16 29 0 -14 -31 -12
-53 2 -12 8 -15 15 -8 20 6 3 11 1 11 -6 0 -7 7 -4 16 7 14 18 15 18 4 -3 -6
-13 -8 -23 -4 -23 3 0 14 10 25 23 11 12 19 18 18 12 -3 -22 2 -29 10 -16 6 9
11 10 15 2 4 -6 1 -11 -6 -11 -9 0 -9 -3 2 -10 10 -6 11 -10 3 -10 -7 0 -13
-5 -13 -12 0 -9 3 -9 12 0 15 15 28 16 28 2 0 -5 -5 -9 -11 -7 -6 1 -14 -4
-16 -11 -3 -7 1 -10 10 -6 8 3 21 -1 28 -8 15 -14 81 -19 72 -6 -2 5 -12 6
-22 3 -9 -3 -26 2 -37 10 -14 11 -15 14 -3 9 10 -3 20 0 25 7 4 8 3 10 -5 5
-10 -7 -69 30 -64 40 1 2 0 10 -3 17 -6 16 -85 18 -97 2 -4 -6 -9 -1 -13 13
-6 20 -34 32 -34 14 0 -5 -7 -17 -16 -28 -8 -10 -13 -14 -10 -8 3 7 -1 17 -9
24 -8 7 -15 9 -15 5 0 -4 -6 -2 -14 4 -10 9 -15 8 -19 -4z m47 -26 c-3 -5 -10
-7 -15 -3 -5 3 -7 10 -3 15 3 5 10 7 15 3 5 -3 7 -10 3 -15z m72 -1 c4 -7 3
-8 -4 -4 -7 4 -12 2 -12 -5 0 -7 -3 -10 -6 -6 -6 5 3 27 11 27 2 0 7 -5 11
-12z"/>
<path d="M13653 4802 c4 -5 0 -15 -8 -22 -12 -10 -15 -10 -15 0 0 8 -3 10 -6
7 -4 -4 -1 -13 5 -21 10 -12 17 -13 31 -4 20 13 20 40 0 46 -7 3 -10 0 -7 -6z"/>
<path d="M13435 4755 c-16 -12 -16 -14 -3 -9 25 8 45 -6 24 -18 -8 -5 -21 -18
-27 -29 -10 -20 -9 -20 19 -5 16 8 32 23 36 31 8 23 8 27 -3 20 -6 -3 -14 1
-18 10 -8 14 -11 14 -28 0z"/>
<path d="M13506 4755 c-9 -26 -7 -32 5 -12 6 10 9 21 6 23 -2 3 -7 -2 -11 -11z"/>
<path d="M11749 4719 c-6 -12 -15 -16 -27 -12 -15 6 -15 5 -3 -10 8 -10 16
-15 19 -13 2 3 14 1 25 -5 15 -9 18 -8 12 2 -5 7 -4 10 3 5 6 -4 9 -12 6 -19
-2 -7 6 -13 21 -13 24 -2 25 -1 8 12 -10 7 -14 14 -9 14 6 0 1 6 -10 14 -14
10 -21 11 -26 3 -4 -6 -10 -8 -15 -4 -9 9 17 28 29 21 4 -3 8 0 8 6 0 6 5 8
11 4 8 -4 7 -9 -2 -16 -10 -6 -7 -7 9 -3 24 7 29 -4 10 -23 -14 -14 0 -16 20
-3 22 13 19 22 -13 39 -41 22 -64 22 -76 1z"/>
<path d="M13600 4730 c-9 -6 -10 -10 -3 -10 6 0 15 5 18 10 8 12 4 12 -15 0z"/>
<path d="M13225 4700 c5 -9 1 -10 -16 -5 -13 3 -19 3 -14 -2 6 -4 10 -15 10
-23 0 -8 4 -18 10 -22 6 -5 5 -11 -5 -18 -8 -5 -11 -10 -6 -10 5 0 2 -8 -7
-18 -12 -13 -30 -18 -56 -17 -24 1 -38 -3 -34 -8 3 -6 1 -7 -5 -3 -6 4 -8 14
-5 24 6 15 5 15 -11 2 -11 -8 -14 -16 -7 -18 6 -2 9 -7 6 -12 -3 -4 12 -6 33
-3 20 3 67 5 105 6 55 0 67 3 65 16 -2 9 -9 22 -16 29 -7 8 -10 17 -7 22 6 9
-25 23 -33 15 -3 -3 0 -5 7 -5 7 0 10 -4 6 -9 -3 -5 -1 -12 5 -16 16 -10 -7
-44 -27 -41 -10 2 -17 6 -15 9 1 4 2 10 2 13 0 4 7 1 15 -6 15 -12 22 0 8 14
-4 3 -7 19 -8 35 -1 22 2 28 13 23 11 -4 13 -1 7 8 -5 9 -4 11 4 6 6 -4 9 -12
6 -17 -10 -14 9 -11 31 7 10 8 14 13 7 9 -7 -3 -27 1 -44 10 -18 10 -28 12
-24 5z m48 -103 c3 -8 -1 -14 -8 -14 -7 0 -11 6 -8 14 3 7 6 13 8 13 2 0 5 -6
8 -13z"/>
<path d="M13486 4658 c-37 -29 -61 -55 -55 -57 7 -2 16 4 21 13 5 9 14 16 19
16 6 0 7 -4 4 -10 -12 -19 2 -10 39 26 20 19 41 32 46 29 6 -3 10 -1 10 5 0 7
-7 10 -17 6 -15 -5 -15 -4 1 9 11 8 15 15 9 15 -6 0 -41 -24 -77 -52z m7 -13
c-3 -9 -8 -14 -10 -11 -3 3 -2 9 2 15 9 16 15 13 8 -4z"/>
<path d="M12119 4688 c0 -2 -2 -11 -4 -21 -3 -15 -1 -16 11 -6 7 6 11 15 8 20
-5 9 -13 12 -15 7z"/>
<path d="M11907 4665 c-12 -8 -14 -15 -7 -20 5 -3 8 -11 5 -16 -14 -21 4 -7
19 15 18 29 9 40 -17 21z"/>
<path d="M12193 4667 c-3 -6 -1 -7 5 -3 7 4 12 3 12 -2 0 -4 14 -8 30 -8 17 0
29 4 27 10 -4 13 -66 15 -74 3z"/>
<path d="M12961 4671 c-8 -5 -9 -11 -3 -15 5 -3 12 1 16 9 6 17 6 18 -13 6z"/>
<path d="M13066 4669 c3 -5 10 -7 15 -4 15 10 10 -11 -5 -24 -9 -8 -16 -8 -20
-2 -4 5 -16 8 -27 6 -16 -3 -19 0 -15 12 5 13 4 14 -9 3 -8 -7 -15 -9 -15 -5
0 4 -6 3 -13 -3 -7 -6 -18 -8 -24 -4 -10 6 -44 7 -110 3 -7 -1 -13 -5 -13 -10
0 -13 63 -9 72 4 5 6 8 6 8 -2 0 -6 -4 -15 -10 -18 -5 -3 -10 -11 -10 -17 0
-7 4 -7 13 1 8 6 18 7 22 3 5 -4 5 1 2 10 -3 10 -1 20 5 24 7 5 8 2 3 -6 -5
-8 -4 -11 3 -6 6 3 13 2 17 -3 3 -5 -2 -14 -11 -19 -11 -6 -13 -11 -5 -16 6
-4 19 7 31 26 11 18 20 28 20 23 0 -6 10 -16 21 -24 20 -12 21 -11 15 6 -6 17
-5 17 8 0 10 -13 15 -14 18 -6 3 9 7 7 11 -5 5 -11 3 -15 -5 -10 -7 4 -8 3 -4
-4 3 -6 -3 -16 -15 -22 -17 -9 -20 -9 -14 0 5 9 1 10 -14 5 -12 -3 -21 -2 -21
3 0 15 -30 8 -41 -9 -7 -12 -9 -12 -9 1 0 13 -2 13 -9 0 -13 -19 -5 -29 19
-23 11 3 17 10 14 17 -3 6 2 2 10 -8 9 -11 16 -15 16 -9 0 7 16 10 41 8 30 -2
39 1 35 10 -3 8 2 19 10 26 8 7 13 18 10 25 -7 17 10 28 20 13 4 -8 3 -9 -5
-5 -8 5 -8 1 0 -16 12 -27 42 -33 59 -13 14 17 -7 32 -23 16 -17 -17 -26 -13
-24 9 1 11 6 20 11 20 11 0 -2 14 -15 16 -5 1 -10 2 -11 4 -10 7 -37 6 -32 -1z"/>
<path d="M11755 4660 c-3 -5 -1 -10 4 -10 6 0 11 5 11 10 0 6 -2 10 -4 10 -3
0 -8 -4 -11 -10z"/>
<path d="M12336 4654 c-3 -9 -10 -13 -15 -10 -4 3 -16 -3 -26 -14 -18 -20 -8
-29 11 -10 7 7 19 6 37 -2 29 -14 42 -34 26 -43 -5 -4 -8 -2 -7 3 2 6 0 9 -4
9 -4 -1 -14 7 -22 18 -16 20 -16 20 -35 -5 -16 -21 -22 -23 -33 -12 -11 11 -9
12 7 7 20 -6 20 -6 1 9 -10 8 -23 13 -27 10 -5 -3 -9 -3 -9 0 0 3 10 10 21 17
17 9 20 8 14 -2 -5 -8 -4 -10 3 -5 7 4 12 11 12 17 0 10 -28 8 -47 -4 -8 -5
-13 -3 -13 5 0 9 -3 9 -10 -2 -5 -8 -10 -10 -10 -4 0 6 -15 11 -32 11 -18 0
-27 -2 -19 -5 11 -4 11 -6 0 -13 -9 -5 -2 -7 19 -4 17 2 32 -1 32 -6 0 -5 -4
-9 -10 -9 -5 0 -10 -4 -10 -9 0 -10 19 -9 37 2 7 4 17 -1 25 -12 8 -12 26 -20
44 -21 27 0 89 -6 107 -9 4 0 7 -7 7 -15 0 -14 57 -43 66 -33 11 10 -7 27 -49
47 -23 10 -34 19 -24 20 11 0 15 4 11 12 -5 7 -3 8 6 3 9 -6 11 -4 5 5 -5 9
-4 11 4 6 6 -4 9 -12 6 -17 -4 -5 -3 -9 2 -9 12 0 35 16 36 26 1 5 5 8 9 7 4
-2 10 6 13 17 6 19 6 19 28 0 11 -11 27 -20 34 -20 7 0 13 -5 13 -12 0 -6 2
-9 5 -6 8 8 -6 39 -15 33 -5 -3 -11 -1 -14 4 -4 5 -1 13 5 17 8 5 9 3 4 -7 -5
-8 -4 -11 0 -6 5 4 19 0 32 -8 17 -12 23 -12 23 -3 1 7 7 2 16 -12 15 -25 15
-25 8 -1 -4 17 -3 22 7 17 8 -3 22 -9 32 -12 9 -4 17 -10 17 -15 0 -11 -22 -7
-33 6 -5 6 -6 2 -3 -8 3 -10 2 -15 -3 -12 -5 3 -12 1 -16 -5 -3 -5 -1 -10 5
-10 6 0 8 -5 4 -12 -5 -9 -2 -9 9 1 9 7 17 9 17 4 0 -5 29 -9 64 -8 35 0 62 3
59 8 -2 4 1 7 6 7 6 0 11 -4 11 -8 0 -5 7 -9 15 -9 8 0 12 4 9 9 -3 4 0 8 5 8
6 0 11 -6 11 -12 0 -9 4 -8 10 2 9 13 11 13 20 0 9 -13 10 -13 10 0 0 12 2 12
8 2 6 -9 12 -6 20 12 11 24 0 47 -13 27 -3 -6 -12 -8 -21 -4 -12 4 -12 8 -2
22 10 13 10 14 -2 4 -18 -16 -34 -17 -24 -1 4 6 3 8 -4 5 -14 -10 -43 3 -36
15 4 6 -2 6 -14 -1 -15 -8 -23 -7 -32 4 -10 12 -16 12 -26 4 -8 -6 -11 -15 -8
-20 10 -17 -7 -31 -22 -18 -8 6 -14 8 -14 3 0 -4 -6 1 -14 11 -8 11 -13 22
-11 25 7 12 -42 5 -58 -8 -10 -9 -17 -10 -22 -2 -3 6 -11 8 -16 5 -5 -4 -9 -2
-9 3 0 5 -21 8 -47 7 -28 -1 -47 -6 -46 -12 4 -21 -27 -22 -37 -2 -13 23 -33
15 -25 -10 7 -23 -19 -48 -31 -30 -5 8 -3 9 6 4 9 -5 11 -4 6 4 -4 6 -11 9
-16 6 -9 -6 -22 23 -15 35 3 4 -1 10 -9 13 -8 3 -17 -1 -20 -9z m18 -20 c3 -8
2 -12 -4 -9 -6 3 -10 10 -10 16 0 14 7 11 14 -7z m90 -24 c-6 -5 -24 21 -24
34 0 6 6 1 14 -10 8 -10 12 -21 10 -24z m319 14 c-6 -16 17 -16 28 0 4 4 16 3
29 -4 12 -6 19 -14 16 -17 -3 -3 2 -11 11 -18 13 -10 11 -12 -18 -10 -19 2
-41 -2 -49 -8 -12 -9 -13 -9 -2 3 16 19 16 35 -1 21 -8 -6 -18 -7 -22 -3 -5 4
-6 0 -3 -8 4 -12 -1 -16 -23 -15 -26 0 -27 1 -12 12 9 7 20 13 24 13 3 0 5 10
5 23 -3 27 3 39 14 32 5 -3 7 -12 3 -21z m-542 -17 c-10 -9 -11 -8 -5 6 3 10
9 15 12 12 3 -3 0 -11 -7 -18z m113 -13 c3 -8 11 -12 17 -8 8 4 9 3 5 -4 -5
-9 -12 -8 -26 1 -21 12 -26 27 -11 27 5 0 12 -7 15 -16z m364 -13 c-8 -12 -18
-18 -21 -14 -11 10 -8 25 3 18 6 -3 13 1 16 10 4 9 9 14 11 11 3 -3 -1 -14 -9
-25z m192 -3 c0 -6 -6 -5 -15 2 -8 7 -15 14 -15 16 0 2 7 1 15 -2 8 -4 15 -11
15 -16z"/>
<path d="M12796 4613 c-6 -7 12 -33 24 -33 3 0 7 7 7 15 0 15 -21 28 -31 18z"/>
<path d="M12756 4598 c3 -5 10 -6 15 -3 13 9 11 12 -6 12 -8 0 -12 -4 -9 -9z"/>
<path d="M13305 4650 c-8 -13 3 -30 18 -30 7 0 6 4 -3 10 -13 9 -13 11 0 20 9
6 10 10 3 10 -6 0 -15 -4 -18 -10z"/>
<path d="M12506 4616 c4 -11 0 -14 -15 -11 -11 2 -20 1 -20 -3 4 -22 -4 -30
-26 -28 -13 2 -22 -1 -19 -5 3 -5 16 -7 30 -5 14 3 24 0 24 -7 0 -7 8 0 18 16
10 15 21 24 25 21 4 -4 -1 -12 -10 -19 -13 -9 -13 -14 -3 -20 9 -6 11 -4 5 5
-6 10 -4 12 11 6 32 -13 55 -15 49 -5 -4 5 -2 9 4 9 5 0 12 -6 15 -12 3 -7 4
-4 3 7 -1 14 3 19 15 17 13 -2 16 2 12 13 -4 9 -9 13 -12 11 -3 -3 -11 -1 -19
6 -11 8 -12 7 -8 -5 7 -17 -10 -33 -20 -18 -3 6 -13 7 -22 4 -11 -4 -14 -2 -9
5 3 6 -2 16 -13 22 -17 8 -19 8 -15 -4z m58 -47 c-3 -5 -10 -7 -15 -3 -5 3 -7
10 -3 15 3 5 10 7 15 3 5 -3 7 -10 3 -15z"/>
<path d="M12990 4610 c6 -11 15 -18 21 -15 13 9 11 13 -12 25 -19 11 -20 10
-9 -10z"/>
<path d="M13030 4600 c0 -5 5 -10 11 -10 5 0 7 5 4 10 -3 6 -8 10 -11 10 -2 0
-4 -4 -4 -10z"/>
<path d="M12607 4565 c3 -8 9 -12 14 -9 12 7 11 11 -5 17 -10 4 -13 1 -9 -8z"/>
<path d="M12810 4396 c28 -17 60 -22 45 -7 -6 5 -23 12 -40 16 l-30 6 25 -15z"/>
<path d="M12744 4355 c1 -8 7 -20 13 -26 9 -9 11 -7 8 7 -2 11 -4 22 -4 27 -1
4 -5 7 -10 7 -5 0 -8 -7 -7 -15z"/>
<path d="M12875 4360 c3 -5 1 -10 -6 -10 -10 0 -10 -3 -2 -11 9 -9 16 -8 27 3
16 17 11 28 -11 28 -8 0 -11 -4 -8 -10z"/>
<path d="M12875 4320 c-18 -8 -17 -9 8 -9 15 -1 27 4 27 9 0 12 -8 12 -35 0z"/>
</g>
</svg>
